<svg xmlns="http://www.w3.org/2000/svg" version="1.2" width="350" height="201.676"><defs><clipPath id="c"><path d="M186.202 744.21h9.42v-9.42h-9.42v9.42z"/></clipPath><clipPath id="b"><path d="M170.79 744.21h9.42v-9.42h-9.42v9.42z"/></clipPath><clipPath id="a"><path d="M155.38 744.21h9.418v-9.42h-9.42v9.42z"/></clipPath></defs><g transform="translate(-73.571 -371.524)"><rect width="350" height="22.806" rx="3" x="73.571" y="371.524" fill="#85b5bb"/><g fill="#ff7050"><path d="M88.28 377.68c0 2.09-1.696 3.785-3.787 3.785-2.09 0-3.786-1.695-3.786-3.786 0-2.092 1.695-3.787 3.786-3.787 2.09 0 3.786 1.695 3.786 3.786" clip-path="url(#a)" opacity=".71"/></g><g fill="#ffed5d"><path d="M100.676 377.68c0 2.09-1.695 3.785-3.786 3.785-2.09 0-3.786-1.695-3.786-3.786 0-2.092 1.695-3.787 3.786-3.787 2.09 0 3.786 1.695 3.786 3.786" clip-path="url(#b)" opacity=".71"/></g><g fill="#93de7f"><path d="M112.82 377.68c0 2.09-1.694 3.785-3.785 3.785-2.09 0-3.786-1.695-3.786-3.786 0-2.092 1.694-3.787 3.785-3.787 2.09 0 3.786 1.695 3.786 3.786" clip-path="url(#c)" opacity=".71"/></g><path d="M423.57 570.972c0 1.23-1.094 2.228-2.447 2.228H76.02c-1.353 0-2.45-.997-2.45-2.228V384.387h350v186.585z" fill="#36535a"/></g></svg>