<?xml version="1.0" encoding="UTF-8" standalone="no"?>
<!-- Created with Inkscape (http://www.inkscape.org/) -->

<svg
   xmlns:dc="http://purl.org/dc/elements/1.1/"
   xmlns:cc="http://creativecommons.org/ns#"
   xmlns:rdf="http://www.w3.org/1999/02/22-rdf-syntax-ns#"
   xmlns:svg="http://www.w3.org/2000/svg"
   xmlns="http://www.w3.org/2000/svg"
   xmlns:sodipodi="http://sodipodi.sourceforge.net/DTD/sodipodi-0.dtd"
   xmlns:inkscape="http://www.inkscape.org/namespaces/inkscape"
   version="1.2"
   width="880.62976"
   height="385.37302"
   id="svg3340"
   inkscape:version="0.48.3.1 r9886"
   sodipodi:docname="terminal.svg">
  <sodipodi:namedview
     pagecolor="#ffffff"
     bordercolor="#666666"
     borderopacity="1"
     objecttolerance="10"
     gridtolerance="10"
     guidetolerance="10"
     inkscape:pageopacity="0"
     inkscape:pageshadow="2"
     inkscape:window-width="1680"
     inkscape:window-height="1023"
     id="namedview5700"
     showgrid="false"
     fit-margin-top="0"
     fit-margin-left="0"
     fit-margin-right="0"
     fit-margin-bottom="0"
     inkscape:zoom="0.82745079"
     inkscape:cx="303.76759"
     inkscape:cy="201.44631"
     inkscape:window-x="0"
     inkscape:window-y="0"
     inkscape:window-maximized="1"
     inkscape:current-layer="layer1" />
  <defs
     id="defs3342">
    <clipPath
       id="clipPath60">
      <path
         d="m 186.202,744.209 9.419,0 0,-9.418 -9.419,0 0,9.418 z"
         id="path62"
         inkscape:connector-curvature="0" />
    </clipPath>
    <clipPath
       id="clipPath44">
      <path
         d="m 170.791,744.209 9.418,0 0,-9.418 -9.418,0 0,9.418 z"
         id="path46"
         inkscape:connector-curvature="0" />
    </clipPath>
    <clipPath
       id="clipPath28">
      <path
         d="m 155.379,744.209 9.419,0 0,-9.418 -9.419,0 0,9.418 z"
         id="path30"
         inkscape:connector-curvature="0" />
    </clipPath>
  </defs>
  <metadata
     id="metadata3345">
    <rdf:RDF>
      <cc:Work
         rdf:about="">
        <dc:format>image/svg+xml</dc:format>
        <dc:type
           rdf:resource="http://purl.org/dc/dcmitype/StillImage" />
        <dc:title />
      </cc:Work>
    </rdf:RDF>
  </metadata>
  <g
     transform="matrix(2.5160848,0,0,2.5160848,-185.11191,-934.78601)"
     id="layer1">
    <rect
       width="350.00003"
       height="22.806349"
       rx="3"
       x="73.571411"
       y="371.52405"
       id="rect4487"
       style="fill:#85b5bb;fill-opacity:1;stroke:none" />
    <g
       transform="matrix(0.80442929,0,0,-0.80442929,-44.289217,972.55477)"
       id="g24"
       style="fill:#ff7050">
      <g
         id="g26"
         style="fill:#ff7050" />
      <g
         id="g32"
         style="fill:#ff7050">
        <g
           clip-path="url(#clipPath28)"
           id="g34"
           style="opacity:0.71000701;fill:#ff7050">
          <g
             transform="translate(164.7979,739.5)"
             id="g36"
             style="fill:#ff7050">
            <path
               d="m 0,0 c 0,-2.601 -2.108,-4.709 -4.709,-4.709 -2.601,0 -4.709,2.108 -4.709,4.709 0,2.601 2.108,4.709 4.709,4.709 C -2.108,4.709 0,2.601 0,0"
               id="path38"
               style="fill:#ff7050;fill-opacity:1;fill-rule:nonzero;stroke:none"
               inkscape:connector-curvature="0" />
          </g>
        </g>
      </g>
    </g>
    <g
       transform="matrix(0.80442929,0,0,-0.80442929,-44.289217,972.55477)"
       id="g40"
       style="fill:#ffed5d">
      <g
         id="g42"
         style="fill:#ffed5d" />
      <g
         id="g48"
         style="fill:#ffed5d">
        <g
           clip-path="url(#clipPath44)"
           id="g50"
           style="opacity:0.71000701;fill:#ffed5d">
          <g
             transform="translate(180.209,739.5)"
             id="g52"
             style="fill:#ffed5d">
            <path
               d="m 0,0 c 0,-2.601 -2.108,-4.709 -4.709,-4.709 -2.601,0 -4.709,2.108 -4.709,4.709 0,2.601 2.108,4.709 4.709,4.709 C -2.108,4.709 0,2.601 0,0"
               id="path54"
               style="fill:#ffed5d;fill-opacity:1;fill-rule:nonzero;stroke:none"
               inkscape:connector-curvature="0" />
          </g>
        </g>
      </g>
    </g>
    <g
       transform="matrix(0.80442929,0,0,-0.80442929,-44.541757,972.55477)"
       id="g56"
       style="fill:#93de7f">
      <g
         id="g58"
         style="fill:#93de7f" />
      <g
         id="g64"
         style="fill:#93de7f">
        <g
           clip-path="url(#clipPath60)"
           id="g66"
           style="opacity:0.71000701;fill:#93de7f">
          <g
             transform="translate(195.6206,739.5)"
             id="g68"
             style="fill:#93de7f">
            <path
               d="m 0,0 c 0,-2.601 -2.108,-4.709 -4.709,-4.709 -2.601,0 -4.709,2.108 -4.709,4.709 0,2.601 2.108,4.709 4.709,4.709 C -2.108,4.709 0,2.601 0,0"
               id="path70"
               style="fill:#93de7f;fill-opacity:1;fill-rule:nonzero;stroke:none"
               inkscape:connector-curvature="0" />
          </g>
        </g>
      </g>
    </g>
    <g
       transform="matrix(0.70173695,0,0,-0.2729595,635.66274,523.03176)"
       id="g76"
       style="fill:#36535a;fill-opacity:1">
      <path
         d="m -302.23764,0 c 0,-3.351 -1.56167,-6.067 -3.48885,-6.067 l -491.78466,0 C -799.43833,-6.067 -801,-3.351 -801,0 l 0,507.933 498.76236,0 0,-507.933 z"
         id="path78"
         style="fill:#36535a;fill-opacity:1;fill-rule:nonzero;stroke:none"
         inkscape:connector-curvature="0"
         clip-path="none" />
    </g>
  </g>
  <rect
     style="fill:#36535a;fill-opacity:1;stroke:none"
     id="rect5720"
     width="43.507118"
     height="147.4408"
     x="343.22284"
     y="223.42982" />
</svg>
