<?xml version="1.0" encoding="UTF-8" standalone="no"?>
<!-- Created with Inkscape (http://www.inkscape.org/) -->

<svg xmlns:dc="http://purl.org/dc/elements/1.1/" xmlns:cc="http://creativecommons.org/ns#" xmlns:rdf="http://www.w3.org/1999/02/22-rdf-syntax-ns#" xmlns:svg="http://www.w3.org/2000/svg" xmlns="http://www.w3.org/2000/svg" version="1.1" width="380" height="290" viewBox="0 0 380.00001 289.99999" id="图层_1" xml:space="preserve"><metadata id="metadata2611"><rdf:RDF><cc:Work rdf:about=""><dc:format>image/svg+xml</dc:format><dc:type rdf:resource="http://purl.org/dc/dcmitype/StillImage" /><dc:title></dc:title></cc:Work></rdf:RDF></metadata><defs id="defs2609" />

<g transform="translate(-58.124001,-45.284749)" id="layer1"><path d="M 50.75,238.46875 C 50.74767,240.51542 50.75067,242.54542 50.75,244.59375 L 58.5625,244.59375 L 58.5625,263.71875 L 66.1875,263.71875 L 66.1875,244.59375 L 73.96875,244.59375 L 73.96875,238.46875 L 50.75,238.46875 z M 115.78125,238.46875 L 115.78125,263.71875 L 123.4375,263.71875 L 123.4375,254.3125 C 125.77166,254.26006 128.12573,254.46829 130.4375,254.0625 C 133.43015,253.61607 135.96405,251.18201 136.46875,248.1875 C 137.01255,245.29331 136.52883,241.81443 134.0625,239.90625 C 131.78087,238.23859 128.83652,238.49113 126.15625,238.46875 L 115.78125,238.46875 z M 181.75,238.46875 L 181.75,243.25 L 188.5625,243.25 L 188.5625,238.46875 L 181.75,238.46875 z M 249.46875,238.46875 L 242.65625,242 L 242.65625,245.4375 L 240.1875,245.4375 L 240.1875,250.46875 L 242.65625,250.46875 L 242.65625,252.65625 C 242.70624,255.21642 242.47421,257.81014 242.9375,260.34375 C 243.05668,261.78997 244.18591,262.93333 245.40625,263.59375 C 248.04288,264.55411 250.90487,264.05409 253.5625,263.4375 L 253.09375,259.25 C 253.23483,258.27274 252.26229,258.9884 251.6875,259 C 250.62775,259.38851 249.37429,258.76458 249.5,257.53125 C 249.44651,255.1859 249.48339,252.81534 249.46875,250.46875 L 253.3125,250.46875 L 253.3125,245.4375 L 249.46875,245.4375 L 249.46875,238.46875 z M 123.4375,243.53125 C 124.93468,243.60074 126.49451,243.29466 127.90625,243.9375 C 129.54076,244.71485 129.75122,247.1681 128.4375,248.34375 C 127.3731,249.32992 125.83906,249.09707 124.5,249.125 C 124.18831,249.03964 123.53064,249.30392 123.4375,249 L 123.4375,243.53125 z M 83.09375,244.875 C 80.20859,244.8275 77.22027,245.81868 75.3125,248.0625 C 73.5522,249.94861 72.88908,252.62887 73.03125,255.15625 C 73.08077,257.68011 74.09823,260.23861 76.125,261.8125 C 78.81274,264.10451 82.64182,264.48951 86,263.84375 C 88.82917,263.28233 91.42955,261.43611 92.59375,258.75 C 94.17919,255.14195 93.6751,250.50727 90.84375,247.65625 C 88.83195,245.61668 85.87085,244.93229 83.09375,244.875 z M 108.375,244.875 C 107.419,244.875 106.58925,245.1415 105.90625,245.6875 C 105.22325,246.0965 104.683,247.05225 104,248.28125 L 104,245.4375 L 97.59375,245.4375 L 97.59375,263.71875 L 104.5625,263.71875 L 104.5625,257.5625 C 104.5625,254.5585 104.817,252.6555 105.5,251.5625 C 106.046,250.7435 106.7315,250.34375 107.6875,250.34375 C 108.0985,250.34375 108.77375,250.602 109.59375,250.875 L 111.65625,245.96875 C 110.42725,245.28575 109.331,244.875 108.375,244.875 z M 151.40625,244.875 C 150.8262,244.87145 150.26044,244.97535 149.71875,245.25 C 148.43645,245.82374 147.76794,247.1133 147.125,248.28125 L 147.125,245.4375 L 140.6875,245.4375 C 140.68517,251.5355 140.68817,257.61908 140.6875,263.71875 L 147.65625,263.71875 L 147.65625,261.75 C 147.6874,259.30832 147.57522,256.87168 147.8125,254.4375 C 147.98367,253.01117 148.27947,251.28613 149.6875,250.5625 C 150.68046,250.02843 151.75878,250.55088 152.71875,250.875 L 154.5,246.5625 C 154.7673,246.12898 154.79825,245.77218 154.1875,245.65625 C 153.3401,245.20326 152.373,244.88092 151.40625,244.875 z M 166.65625,244.875 C 163.81138,244.83015 160.84817,245.7831 158.9375,247.96875 C 157.14601,249.82305 156.26534,252.44241 156.40625,255 C 156.4455,257.60089 157.62013,260.2008 159.6875,261.8125 C 162.43682,264.15178 166.33269,264.50973 169.75,263.78125 C 172.53457,263.1788 175.07375,261.31901 176.1875,258.65625 C 177.7293,255.0256 177.16931,250.3711 174.28125,247.5625 C 172.27329,245.58452 169.38522,244.95613 166.65625,244.875 z M 202.5625,244.875 C 199.65259,244.82633 196.58865,245.83995 194.6875,248.125 C 192.2363,250.95423 191.8563,255.23236 193.28125,258.625 C 194.29372,261.11012 196.45477,263.16353 199.125,263.71875 C 201.64663,264.2679 204.28679,264.24885 206.8125,263.75 C 208.51969,263.42988 210.07293,262.47938 211.1875,261.15625 C 211.6559,260.51927 212.73656,259.43233 212.625,258.90625 L 206.125,258.28125 C 205.51686,258.9536 204.91301,259.72992 203.9375,259.8125 C 202.39982,260.20123 200.57653,259.5439 199.875,258.0625 C 199.79053,257.55239 198.90352,256.05401 199.875,256.21875 L 213.21875,256.21875 C 213.28951,253.4079 212.92796,250.3949 211.125,248.125 C 210.03317,246.80706 208.52604,245.83022 206.84375,245.46875 C 205.44659,245.10894 204.00458,244.9063 202.5625,244.875 z M 226.53125,244.875 C 224.83773,244.94818 223.16268,245.2917 221.59375,245.9375 C 219.74896,246.79555 218.29579,248.44202 217.46875,250.28125 C 216.51712,252.42489 216.57711,254.87891 216.90625,257.15625 C 217.21271,259.53093 218.85626,261.58953 220.90625,262.75 C 222.614,263.77638 224.64841,263.95739 226.59375,264.09375 C 228.87355,264.16831 231.35076,264.0907 233.3125,262.78125 C 235.36706,261.62577 236.70538,259.55319 237.3125,257.3125 L 230.78125,256.5 C 230.52218,257.60301 229.84173,258.55904 228.8125,259.0625 C 227.04278,259.7832 224.53052,259.176 223.875,257.21875 C 223.37182,255.6932 223.44816,254.02326 223.78125,252.46875 C 224.12531,250.7656 225.86092,249.61089 227.5625,249.8125 C 228.93603,249.74484 230.32064,250.72254 230.5,252.125 L 236.90625,251.28125 C 236.30346,248.57745 234.27097,246.20997 231.5625,245.46875 C 229.935,245.02311 228.22477,244.80182 226.53125,244.875 z M 279,244.875 C 276.11458,244.82722 273.09566,245.81887 271.1875,248.0625 C 269.35887,250.01593 268.69715,252.78835 268.90625,255.40625 C 269.06071,258.57942 270.96032,261.61925 273.84375,263 C 276.42708,264.26198 279.47881,264.37106 282.25,263.75 C 285.00789,263.09784 287.47228,261.17924 288.5625,258.53125 C 290.1067,254.84728 289.46037,250.12239 286.4375,247.375 C 284.43673,245.53292 281.64544,244.93556 279,244.875 z M 304.15625,244.875 C 303.5762,244.87145 303.01044,244.97535 302.46875,245.25 C 301.18645,245.82374 300.51794,247.1133 299.875,248.28125 L 299.875,245.4375 L 293.46875,245.4375 C 293.46642,251.5355 293.43817,257.61908 293.4375,263.71875 L 300.40625,263.71875 L 300.40625,261.75 C 300.43736,259.30833 300.32566,256.87171 300.5625,254.4375 C 300.73318,253.01097 301.0296,251.28622 302.4375,250.5625 C 303.4305,250.02827 304.50868,250.55121 305.46875,250.875 L 307.28125,246.5625 C 307.54855,246.12898 307.5795,245.77218 306.96875,245.65625 C 306.12135,245.20326 305.123,244.88092 304.15625,244.875 z M 316.8125,244.875 C 313.944,244.75095 311.24416,246.74626 310.28125,249.40625 C 309.30036,251.99637 309.4085,254.8776 310.0625,257.53125 C 310.82024,260.37628 313.3772,262.72715 316.375,262.875 C 318.02221,262.96074 319.84243,262.61957 321.125,261.53125 C 321.65763,260.95665 322.5173,259.87579 322.25,261.3125 C 322.22656,262.71696 322.44184,264.21836 321.84375,265.53125 C 321.03374,266.81839 319.19006,266.98564 317.90625,266.375 C 316.81858,266.33518 317.11739,264.47551 315.90625,264.71875 L 310.125,264.125 C 309.50347,266.76816 311.20799,269.74611 313.875,270.40625 C 316.60154,271.26237 319.49764,271.16066 322.3125,270.90625 C 324.68811,270.64995 327.16096,269.52501 328.25,267.28125 C 329.27127,265.45631 329.29538,263.34169 329.25,261.3125 L 329.25,245.4375 L 322.8125,245.4375 L 322.8125,248.03125 C 321.50453,246.04856 319.20547,244.77746 316.8125,244.875 z M 181.75,245.4375 C 181.75233,250.47539 181.74933,255.49169 181.75,260.53125 C 181.69711,261.87363 181.89297,263.27272 181.4375,264.5625 C 181.0078,265.66627 179.66675,265.61346 178.71875,265.375 L 177.65625,270.5625 C 179.62508,270.79403 181.57001,271.23211 183.5625,271.0625 C 184.97081,271.00683 186.30112,270.33286 187.28125,269.34375 C 188.42564,267.93617 188.49326,266.01317 188.5625,264.28125 C 188.59678,257.99763 188.55329,251.72134 188.5625,245.4375 L 181.75,245.4375 z M 202.84375,249.125 C 203.95329,249.09172 205.18486,249.55909 205.625,250.65625 C 205.8373,251.2573 206.52558,252.61661 206,252.9375 L 199.4375,252.9375 C 199.56074,251.41532 200.27758,249.69691 201.875,249.25 C 202.18319,249.16417 202.52447,249.12493 202.84375,249.125 z M 83.21875,249.8125 C 84.81783,249.74971 86.12553,251.10433 86.34375,252.625 C 86.59093,254.16964 86.6235,255.82291 86.09375,257.3125 C 85.58517,258.42141 84.51087,259.40806 83.21875,259.34375 C 82.16274,259.497 81.16864,258.69003 80.5625,257.84375 C 79.6954,256.4655 79.76487,254.74716 79.90625,253.1875 C 80.034,251.824 80.79576,250.42045 82.15625,249.96875 C 82.49984,249.84916 82.85603,249.81209 83.21875,249.8125 z M 166.28125,249.8125 L 166.46875,249.8125 L 166.65625,249.8125 C 168.24903,249.69466 169.62717,251.0036 169.875,252.53125 C 170.15533,254.0429 170.15817,255.64356 169.71875,257.125 C 169.25152,258.37261 168.06301,259.46133 166.65625,259.34375 C 165.63697,259.47968 164.64055,258.69308 164.09375,257.84375 C 163.2126,256.42434 163.29992,254.63084 163.46875,253.03125 C 163.62666,251.51818 164.6538,249.94298 166.28125,249.8125 z M 279.125,249.8125 C 280.77107,249.74861 282.03138,251.21111 282.25,252.75 C 282.48768,254.25882 282.48055,255.86623 281.9375,257.3125 C 281.41893,258.40217 280.41521,259.41166 279.125,259.34375 C 278.06475,259.49194 277.01503,258.70161 276.40625,257.84375 C 275.55817,256.45691 275.65901,254.74655 275.78125,253.1875 C 275.89204,251.87317 276.58125,250.51671 277.875,250.03125 C 278.26601,249.87076 278.7039,249.81159 279.125,249.8125 z M 319.28125,250.0625 C 321.08552,249.99674 322.39578,251.8094 322.375,253.5 C 322.55438,255.13402 322.15278,257.16624 320.5,257.90625 C 319.04952,258.5741 317.03402,257.79625 316.6875,256.15625 C 316.17758,254.45034 316.2497,252.45136 317.25,250.9375 C 317.72499,250.33036 318.51318,249.99526 319.28125,250.0625 z M 257.75,256.625 L 257.75,263.71875 L 264.96875,263.71875 L 264.96875,256.625 L 257.75,256.625 z" transform="translate(58.124001,45.28474)" id="path3078" style="fill:#7d4698;fill-opacity:1;stroke:none" /><g id="layer3" style="display:inline"><g id="layer5"><path d="M 264.513,77.977773 L 259.596,97.506774 C 266.561,83.713773 277.623,73.334773 290.325,64.183773 C 281.038,74.972773 272.571,85.762774 267.381,96.551774 C 276.122,84.259773 287.867,77.431773 301.114,72.924773 C 283.496,88.630774 269.51172,105.48405 258.85872,122.41905 L 250.39172,118.73205 C 251.89272,105.21105 257.001,91.362774 264.513,77.977773 z" id="path2554" style="fill:#abcd03;fill-rule:evenodd;stroke:none" /><path d="M 241.90113,115.14152 L 258.01713,121.82746 C 258.01713,125.92546 257.684,138.42449 260.24651,142.11149 C 287.0494,176.63059 282.54,245.82478 254.817,247.59978 C 212.60044,247.59978 196.5,218.92078 196.5,192.56177 C 196.5,168.52477 225.316,152.54577 242.525,138.34277 C 246.895,134.51877 246.13613,126.06752 241.90113,115.14152 z" id="path2534" style="fill:#fffcdb;fill-rule:evenodd;stroke:none" /><path d="M 258.02197,121.58695 L 263.83,124.54977 C 263.284,128.37277 264.103,136.84177 267.926,139.02577 C 284.862,149.54177 300.84,161.01377 307.123,172.48577 C 329.521,212.91178 291.417,250.33178 258.503,246.78078 C 276.394,233.53278 281.584,206.35577 274.892,176.71877 C 272.161,165.10977 267.926,154.59377 260.414,142.71177 C 257.15979,136.87931 258.29597,129.64595 258.02197,121.58695 z" id="path2536" style="fill:#7d4698;fill-rule:evenodd;stroke:none" /></g><g id="layer4" style="display:inline"><path d="M 255.226,120.58877 L 267.244,122.22777 C 263.693,133.97277 274.21,142.16677 277.624,144.07977 C 285.27201,148.31377 292.64701,152.68377 298.52001,158.00977 C 309.58301,168.11577 315.86501,182.31977 315.86501,197.34277 C 315.86501,212.22877 309.03601,226.56877 297.56401,236.12877 C 286.77501,245.14277 271.889,248.96677 257.412,248.96677 C 248.398,248.96677 240.34,248.55777 231.6,245.68877 C 211.661,238.99677 196.774,221.92577 195.545,201.43877 C 194.452,185.45977 198.003,173.30477 210.432,160.60377 C 216.85,153.91177 229.825,146.26377 238.703,140.11777 C 243.074,137.11277 247.717,128.64477 238.839,112.66677 L 240.615,111.30077 L 253.77159,120.1128 L 242.664,115.53477 C 243.62,116.90077 246.215,123.04677 246.762,124.82177 C 247.991,129.87477 247.445,134.79277 246.352,136.97677 C 240.753,147.08377 231.193,149.81477 224.228,155.55077 C 211.936,165.65677 198.552,173.71477 200.054,201.43877 C 200.737,215.09577 211.39,231.75777 227.368,239.54277 C 236.382,243.91377 246.762,245.68877 257.278,246.23477 C 266.701,246.64477 284.72901,241.04477 294.56201,232.85077 C 305.07801,224.11077 310.95101,210.86277 310.95101,197.34277 C 310.95101,183.68477 305.48801,170.71077 295.24501,161.55977 C 289.37201,156.23377 279.676,149.81477 273.667,146.39977 C 267.658,142.98577 260.146,133.42577 262.604,124.27577 z" id="path2538" style="fill:#000000;fill-opacity:1;stroke:none" /><path d="M 251.539,140.80177 C 250.31,147.08477 248.944,158.41977 243.481,162.65377 C 241.159,164.29177 238.837,165.93177 236.379,167.56977 C 226.546,174.26277 216.712,180.54377 212.206,196.65977 C 211.25,200.07477 212.07,203.76177 212.89,207.17577 C 215.348,217.00877 222.313,227.66177 227.776,233.94477 C 227.776,234.21777 228.869,234.90077 228.869,235.17377 C 233.376,240.50077 234.742,242.00277 251.813,245.82577 L 251.403,247.73877 C 241.16,245.00777 232.693,242.54977 227.366,236.40277 C 227.366,236.26677 226.41,235.30977 226.41,235.30977 C 220.674,228.75377 213.708,217.82877 211.114,207.58577 C 210.158,203.48777 209.339,200.34777 210.431,196.11277 C 215.074,179.45177 225.181,172.89577 235.424,165.93077 C 237.746,164.42877 240.477,163.06177 242.662,161.28677 C 246.895,158.14677 249.216,148.58577 251.539,140.80177 z" id="path2540" style="fill:#000000;fill-opacity:1;stroke:none" /><path d="M 255.90625,166.74951 C 256.04325,173.85151 255.35,177.41426 257.125,182.46826 C 258.217,185.47226 261.907,189.56976 263,193.53076 C 264.502,198.85776 266.138,204.72977 266,208.28077 C 266,212.37876 265.74375,220.02326 263.96875,228.21826 C 262.61513,234.98934 259.49552,240.79979 254.25,244.09326 C 248.87673,242.98682 242.56776,241.09805 238.84375,237.90576 C 231.60575,231.62376 225.195,221.11926 224.375,211.96826 C 223.693,204.45727 230.64775,193.37976 240.34375,187.78076 C 248.53775,183.00076 250.44375,177.55301 252.21875,168.81201 C 249.76075,176.46001 247.45225,182.87126 239.53125,186.96826 C 228.05925,192.97726 222.17275,203.06452 222.71875,212.62451 C 223.53775,224.91551 228.46025,233.24401 238.15625,239.93701 C 242.25325,242.80501 249.9075,245.83576 254.6875,246.65576 L 254.6875,246.03076 C 258.31243,245.35188 263.00568,239.39809 265.34375,231.34326 C 267.39275,224.10526 268.2005,214.84126 268.0625,208.96827 C 267.9255,205.55427 266.4195,198.16026 263.6875,191.46826 C 262.1855,187.78126 259.878,184.09451 258.375,181.49951 C 256.738,178.90251 256.72625,173.30451 255.90625,166.74951 z" id="path2542" style="fill:#000000;fill-opacity:1;stroke:none" /><path d="M 255.09375,193.53076 C 255.22975,198.31076 257.14975,204.43527 257.96875,210.71827 C 258.65275,215.36226 258.35575,220.02651 258.21875,224.12451 C 258.0838,228.86774 256.50355,237.36669 254.34375,241.49951 C 252.30702,240.56548 251.51081,239.50029 250.1875,237.78076 C 248.5495,235.45876 247.43675,233.13676 246.34375,230.40576 C 245.52475,228.35676 244.56725,226.01176 244.15625,223.28076 C 243.61025,219.18376 243.76325,212.77426 248.40625,206.21827 C 251.95725,201.02826 252.771,200.63351 254,194.62451 C 252.36,199.95051 251.1375,200.49351 247.3125,204.99952 C 243.0795,209.91652 242.375,217.15876 242.375,223.03076 C 242.375,225.48976 243.3555,228.21801 244.3125,230.81201 C 245.4045,233.54401 246.34175,236.26401 247.84375,238.31201 C 250.10171,241.63283 252.99173,243.52123 254.40625,243.87451 C 254.41563,243.87685 254.42825,243.8723 254.4375,243.87451 C 254.46781,243.88174 254.50238,243.89999 254.53125,243.90576 L 254.53125,243.74951 C 257.18107,240.79514 258.77569,237.86017 259.3125,234.90576 C 259.9955,231.35476 260.1525,227.79601 260.5625,223.56201 C 260.9715,220.01101 260.67475,215.22801 259.71875,210.31202 C 258.35375,204.16602 256.04975,197.89976 255.09375,193.53076 z" id="path2544" style="fill:#000000;fill-opacity:1;stroke:none" /><path d="M 255.499,135.06577 C 255.636,142.16677 256.182,155.41577 258.094,160.60477 C 258.64,162.37977 263.693,170.16477 267.243,179.58777 C 269.702,186.14377 270.248,192.15277 270.658,193.92777 C 272.297,201.71277 270.248,214.82377 267.516,227.25177 C 266.151,233.94377 261.507,242.27477 256.181,245.55277 L 255.089,247.46477 C 258.094,247.32777 265.468,240.08977 268.063,231.07577 C 272.434,215.77977 274.209,208.67777 272.161,191.74277 C 271.888,190.10277 271.205,184.50477 268.61,178.49477 C 264.786,169.34377 259.323,160.60377 258.641,158.82777 C 257.411,155.96077 255.772,143.53277 255.499,135.06577 z" id="path2550" style="fill:#000000;fill-opacity:1;stroke:none" /><path d="M 258.06151,125.35303 C 257.65636,132.65115 257.548,135.33877 258.913,140.66477 C 260.415,146.53777 268.064,155.00477 271.205,164.70177 C 277.214,183.27577 275.712,207.58577 271.341,226.56877 C 269.703,233.25977 261.917,242.95777 254.133,246.09777 L 259.869,247.46377 C 263.01,247.32677 271.067,239.81577 274.209,231.21177 C 279.261,217.69077 280.218,201.57577 278.169,184.64077 C 278.032,183.00177 275.3,168.38877 272.706,162.24277 C 269.018,153.09277 262.462,144.89777 261.78,143.12377 C 260.552,140.11877 257.85349,133.88015 258.06151,125.35303 z" id="path2552" style="fill:#000000;fill-opacity:1;stroke:none" /><rect width="0.550412" height="126.01891" x="253.71959" y="120.21686" id="rect2556" style="fill:#000000;fill-opacity:1;stroke:none" /></g></g><path d="M 99.943,82.074773 H 209.611 C 213.707,82.074773 217.258,85.488773 217.258,89.722773 V 122.08977 C 217.258,126.32377 213.707,129.73877 209.611,129.73877 H 187.077 C 182.023,129.73877 179.838,132.60577 179.838,135.88377 V 241.86378 C 179.838,245.41478 176.97,248.14578 173.556,248.14578 H 136.272 C 132.857,248.14578 130.126,245.41478 130.126,241.86378 V 134.92877 C 130.126,131.65077 127.121,129.73977 124.8,129.73977 H 99.943 C 95.709,129.73977 92.295,126.32477 92.295,122.09077 V 89.722773 C 92.294,85.488773 95.708,82.074773 99.943,82.074773 z" id="path2528" style="fill:#7d4698;fill-opacity:1;fill-rule:evenodd;stroke:none" /><path d="M 381.30687,124.95877 L 381.44287,124.95877 L 391.00287,124.95877 C 394.55387,124.95877 397.42187,127.82677 397.42187,131.24077 L 397.42187,165.93077 C 397.42187,170.43777 397.69487,172.21277 392.23187,172.21277 C 381.44287,172.21277 376.52687,177.94877 376.52687,184.23077 L 376.52687,242.81978 C 376.52687,245.55178 373.93187,247.87278 370.79087,247.87278 L 335.96387,247.87278 C 332.82287,247.87278 330.22787,245.55178 330.22787,242.81978 L 330.22787,176.03577 C 330.19003,174.86136 330.21308,173.12767 330.36487,172.21277 C 332.27687,147.49277 351.6724,127.71491 376.25287,125.23177 C 377.07686,125.14853 379.9923,124.95877 381.30687,124.95877 z" id="path2532" style="fill:#7d4698;fill-opacity:1;fill-rule:evenodd;stroke:none" /><g transform="matrix(1.8025885,0,0,1.8025885,-321.30782,-98.80226)" id="layer7"><path d="M 405.999,129.09724 L 406.03025,129.09724 C 406.32841,129.09725 406.59516,129.09434 406.8115,129.12849 C 407.02174,129.15616 407.18553,129.23538 407.3115,129.31599 C 407.43963,129.38992 407.52656,129.48086 407.59275,129.62849 C 407.65137,129.75929 407.71119,129.95551 407.71775,130.19099 A 0.15001501,0.15001501 0 0 0 407.71775,130.22224 A 0.15001501,0.15001501 0 0 0 407.71775,130.25349 A 0.15001501,0.15001501 0 0 0 407.71775,130.28474 C 407.71088,130.78287 407.57349,131.11169 407.34275,131.28474 C 407.09818,131.46817 406.66419,131.566 406.0615,131.56599 L 405.999,131.56599 L 405.999,129.09724 z M 406.624,126.65974 C 408.58231,126.62221 410.53291,127.79987 411.35006,129.58251 C 412.29552,131.43018 412.03559,133.85822 410.60266,135.39008 C 410.45914,135.5564 410.56057,135.07431 410.53025,134.94099 C 410.50664,134.74608 410.24551,134.76592 410.08634,134.71387 C 409.881,134.71603 409.76226,134.58697 409.66954,134.41849 C 409.14394,133.6864 408.61835,132.95432 408.09275,132.22224 C 408.72543,132.0174 409.31305,131.59055 409.53124,130.9383 C 409.88942,130.02066 409.46377,128.87638 408.55463,128.46433 C 407.61591,127.99371 406.54008,128.16049 405.52668,128.12849 C 404.8379,128.1355 404.13903,128.1149 403.45616,128.13801 C 403.3012,128.29067 403.40346,128.54915 403.374,128.75349 C 403.41326,128.83477 403.44806,128.91528 403.55774,128.91855 C 403.74649,128.94686 403.93525,128.97518 404.124,129.00349 C 404.124,130.89932 404.124,132.79516 404.124,134.69099 C 403.90804,134.75931 403.62646,134.70852 403.46775,134.87849 C 403.47581,135.09914 403.45198,135.33178 403.47727,135.54633 C 403.59608,135.65947 403.79827,135.56664 403.95069,135.59724 C 404.89385,135.59723 405.83724,135.59726 406.78025,135.59724 C 406.91504,135.48472 406.8092,135.27086 406.84275,135.11585 C 406.84896,134.99491 406.87441,134.80931 406.71775,134.78474 C 406.47817,134.75349 406.23858,134.72224 405.999,134.69099 C 405.999,133.97224 405.999,133.25349 405.999,132.53474 C 406.21776,132.46529 406.30282,132.64714 406.40028,132.80568 C 407.0061,133.70495 407.61193,134.60422 408.21775,135.50349 C 408.21476,135.59479 408.35266,135.61735 408.39617,135.60835 C 409.06562,135.58221 409.75839,135.6048 410.4365,135.59724 C 409.88985,136.24245 409.11121,136.66629 408.3242,136.95456 C 406.60757,137.54095 404.59842,137.15879 403.24066,135.94741 C 401.76786,134.65244 401.14017,132.51152 401.6259,130.61776 C 402.14743,128.45188 404.17291,126.70624 406.42465,126.66418 C 406.49107,126.66158 406.55753,126.66012 406.624,126.65974 z M 406.65525,125.59724 C 404.79677,125.5659 402.96344,126.46712 401.78608,127.89152 C 400.49592,129.45674 400.01731,131.64057 400.55953,133.59716 C 401.12596,135.75186 402.9133,137.51703 405.07479,138.05675 C 407.33649,138.64681 409.91104,137.90817 411.43511,136.1134 C 412.42682,135.01714 412.99503,133.54684 412.96775,132.06599 C 412.99313,131.51621 412.93168,130.90548 412.80555,130.34718 C 412.1779,127.58852 409.46307,125.55052 406.65525,125.59724 z" id="text4064" style="font-size:18.31413078px;font-style:normal;font-variant:normal;font-weight:bold;font-stretch:normal;text-indent:0;text-align:center;text-decoration:none;line-height:125%;letter-spacing:0px;word-spacing:0px;text-transform:none;direction:ltr;block-progression:tb;writing-mode:lr-tb;text-anchor:middle;baseline-shift:baseline;color:#000000;fill:#7d4698;fill-opacity:1;fill-rule:nonzero;stroke:none;stroke-width:0;marker:none;visibility:visible;display:inline;overflow:visible;enable-background:accumulate;font-family:Liberation Serif;-inkscape-font-specification:Sans" /></g></g></svg>